<svg width="36" height="12" viewBox="0 0 36 12" fill="none" xmlns="http://www.w3.org/2000/svg">
<g clip-path="url(#clip0_10371_102)">
<path d="M0.000976562 1.37608H3.15101L3.04769 2.84681H3.12301C3.59134 1.67268 4.76505 1.08643 5.82758 1.08643C8.10605 1.08643 9.24395 2.68498 9.24395 5.36834V10.6122H6.03742V5.55966C6.03742 4.48026 5.52362 3.94196 4.68973 3.94196C3.8558 3.94196 3.21019 4.55953 3.21019 5.75367V10.6122H0.000976562V1.37608Z" fill="#1C1C1E"/>
<path d="M12.1853 4.67679L10.1543 5.07532V2.21123L15.4295 1.10645V10.612H12.1853V4.67679Z" fill="#1C1C1E"/>
<path d="M18.4558 4.67679L16.4248 5.07532V2.21123L21.7 1.10645V10.612H18.4558V4.67679Z" fill="#1C1C1E"/>
<mask id="mask0_10371_102" style="mask-type:luminance" maskUnits="userSpaceOnUse" x="24" y="0" width="12" height="12">
<path d="M35.9922 6.01718C35.9922 2.71448 33.3559 0.0371094 30.104 0.0371094C26.852 0.0371094 24.2158 2.71448 24.2158 6.01718C24.2158 9.31989 26.852 11.9973 30.104 11.9973C33.3559 11.9973 35.9922 9.31989 35.9922 6.01718Z" fill="white"/>
</mask>
<g mask="url(#mask0_10371_102)">
<path d="M32.0815 5.3437C33.7361 5.3437 35.1515 6.3812 35.7325 7.85049C35.9154 7.27152 36.0144 6.65479 36.0144 6.01413C36.0144 4.17211 35.1976 2.52412 33.912 1.42242C33.625 2.16446 32.9137 2.69002 32.0815 2.69002V2.69059C30.9959 2.69059 30.1151 1.79656 30.1151 0.693442C30.1151 0.45339 30.1568 0.223561 30.2331 0.0104936C30.1892 0.00964134 30.145 0.00878906 30.1008 0.00878906C28.7847 0.00878906 27.5693 0.445717 26.5869 1.18407C27.5237 1.76872 28.1483 2.819 28.1483 4.01728C28.1483 5.85308 26.682 7.34112 24.875 7.34112C24.6865 7.34112 24.5019 7.32466 24.3223 7.29368C24.8294 9.66755 26.7184 11.5178 29.091 11.9326C28.5033 11.2346 28.1483 10.3286 28.1483 9.33829C28.1483 7.13234 29.9092 5.34398 32.0812 5.34398L32.0815 5.3437Z" fill="#FF44EE"/>
<path d="M35.7323 7.85055C35.1513 6.38125 33.7359 5.34375 32.0814 5.34375C29.9093 5.34375 28.1484 7.13211 28.1484 9.33806C28.1484 10.3284 28.5034 11.2343 29.0911 11.9324C29.4192 11.9897 29.7566 12.0198 30.1009 12.0198C32.7362 12.0198 34.9684 10.269 35.7323 7.85055Z" fill="#1C1C1E"/>
<path d="M28.1484 4.0173C28.1484 2.81873 27.5235 1.76873 26.587 1.18408C25.1313 2.27782 24.1875 4.03407 24.1875 6.01444C24.1875 6.45338 24.2342 6.88149 24.3223 7.2937C24.5022 7.32468 24.6868 7.34114 24.8751 7.34114C26.6821 7.34114 28.1484 5.8531 28.1484 4.0173Z" fill="#1C1C1E"/>
<path d="M32.0814 2.69035V2.68978C32.9136 2.68978 33.6246 2.16422 33.9119 1.42218C32.9139 0.567352 31.6336 0.0415039 30.2333 0.0102539C30.1569 0.223321 30.1152 0.453433 30.1152 0.693204C30.1152 1.79632 30.9961 2.69035 32.0817 2.69035H32.0814Z" fill="#1C1C1E"/>
</g>
</g>
<defs>
<clipPath id="clip0_10371_102">
<rect width="36" height="12" fill="white"/>
</clipPath>
</defs>
</svg>
